# xmcd
#
# Track frame offsets:
#	150
#	16571
#	36214
#	64583
#	85153
#	106029
#	120549
#	144910
#	167122
#	182874
#	202456
#	216984
#	241202
#	269492
#	290764
#	323799
#	337076
#
# Disc length: 4755 seconds
#
# Revision: 1
# Processed by: cddbd v1.4PL0 Copyright (c) Steve Scherf et al.
# Submitted via: audiograbber 1.80
#
DISCID=fe129111
DTITLE=Eric Clapton - Hit Collection 2000
DYEAR=1900
DGENRE=
TTITLE0=Wonderful Tonight
TTITLE1=I Shot The Sheriff
TTITLE2=It's Probably Me
TTITLE3=Tears In Heaven
TTITLE4=Layla
TTITLE5=Hard Times
TTITLE6=My Father's Eyes
TTITLE7=Let It Grow
TTITLE8=Cocaine
TTITLE9=Knockin' On The Heaven Door
TTITLE10=Forever Man
TTITLE11=Worried Life Blues
TTITLE12=Running On Faith
TTITLE13=Blue Eyes Blue
TTITLE14=River Of Tears
TTITLE15=Blues Before Sunrise
TTITLE16=(I) Get Lost
EXTD=
EXTT0=
EXTT1=
EXTT2=
EXTT3=
EXTT4=
EXTT5=
EXTT6=
EXTT7=
EXTT8=
EXTT9=
EXTT10=
EXTT11=
EXTT12=
EXTT13=
EXTT14=
EXTT15=
EXTT16=
PLAYORDER=
